<svg data-v-423bf9ae="" xmlns="http://www.w3.org/2000/svg" viewBox="0 0 418.0663497032671 60" class="font"><!----><!----><!----><g data-v-423bf9ae="" id="3a25291e-0916-43e4-a65a-452baacf1ac4" fill="black" transform="matrix(5.6872042027481005,0,0,5.6872042027481005,-5.573465809239735,-20.47393506435626)"><path d="M4.10 8.58L4.10 8.58Q5.91 9.28 6.68 9.99L6.68 9.99L6.68 9.99Q7.45 10.70 7.45 11.62L7.45 11.62L7.45 11.62Q7.45 12.78 6.62 13.47L6.62 13.47L6.62 13.47Q5.78 14.15 4.28 14.15L4.28 14.15L4.28 14.15Q3.04 14.15 2.24 13.76L2.24 13.76L2.24 13.76Q1.44 13.36 0.98 12.54L0.98 12.54L1.48 12.29L1.48 12.29Q1.88 13.02 2.54 13.36L2.54 13.36L2.54 13.36Q3.21 13.69 4.28 13.69L4.28 13.69L4.28 13.69Q5.57 13.69 6.26 13.13L6.26 13.13L6.26 13.13Q6.94 12.56 6.94 11.66L6.94 11.66L6.94 11.66Q6.94 10.91 6.25 10.29L6.25 10.29L6.25 10.29Q5.56 9.67 4.10 9.13L4.10 9.13L4.10 9.13Q2.80 8.65 2.12 7.92L2.12 7.92L2.12 7.92Q1.44 7.20 1.44 6.30L1.44 6.30L1.44 6.30Q1.44 5.26 2.19 4.69L2.19 4.69L2.19 4.69Q2.94 4.12 4.23 4.12L4.23 4.12L4.23 4.12Q6.34 4.12 7.13 5.68L7.13 5.68L6.66 5.92L6.66 5.92Q6.33 5.22 5.76 4.90L5.76 4.90L5.76 4.90Q5.19 4.58 4.23 4.58L4.23 4.58L4.23 4.58Q3.21 4.58 2.58 5.02L2.58 5.02L2.58 5.02Q1.96 5.46 1.96 6.26L1.96 6.26L1.96 6.26Q1.96 6.97 2.50 7.57L2.50 7.57L2.50 7.57Q3.04 8.16 4.10 8.58L4.10 8.58ZM12.64 14.15L12.64 14.15Q11.41 14.15 10.66 13.27L10.66 13.27L10.66 13.27Q9.91 12.39 9.91 10.49L9.91 10.49L9.91 10.49Q9.91 8.58 10.67 7.71L10.67 7.71L10.67 7.71Q11.42 6.83 12.64 6.83L12.64 6.83L12.64 6.83Q13.86 6.83 14.61 7.71L14.61 7.71L14.61 7.71Q15.36 8.58 15.36 10.49L15.36 10.49L15.36 10.49Q15.36 12.39 14.61 13.27L14.61 13.27L14.61 13.27Q13.86 14.15 12.64 14.15L12.64 14.15ZM12.64 13.69L12.64 13.69Q13.62 13.69 14.24 12.96L14.24 12.96L14.24 12.96Q14.85 12.22 14.85 10.49L14.85 10.49L14.85 10.49Q14.85 8.78 14.24 8.04L14.24 8.04L14.24 8.04Q13.62 7.29 12.64 7.29L12.64 7.29L12.64 7.29Q11.66 7.29 11.04 8.04L11.04 8.04L11.04 8.04Q10.42 8.78 10.42 10.49L10.42 10.49L10.42 10.49Q10.42 12.22 11.03 12.96L11.03 12.96L11.03 12.96Q11.65 13.69 12.64 13.69L12.64 13.69ZM23.97 12.75L23.97 12.75Q23.72 13.26 23.09 13.71L23.09 13.71L23.09 13.71Q22.47 14.15 21.56 14.15L21.56 14.15L21.56 14.15Q20.82 14.15 20.15 13.78L20.15 13.78L20.15 13.78Q19.47 13.40 19.03 12.57L19.03 12.57L19.03 12.57Q18.59 11.75 18.59 10.49L18.59 10.49L18.59 10.49Q18.59 9.21 19.03 8.39L19.03 8.39L19.03 8.39Q19.47 7.57 20.15 7.20L20.15 7.20L20.15 7.20Q20.82 6.83 21.56 6.83L21.56 6.83L21.56 6.83Q23.23 6.83 23.97 8.29L23.97 8.29L23.53 8.51L23.53 8.51Q23.24 7.91 22.79 7.60L22.79 7.60L22.79 7.60Q22.34 7.29 21.56 7.29L21.56 7.29L21.56 7.29Q20.94 7.29 20.38 7.64L20.38 7.64L20.38 7.64Q19.81 7.99 19.45 8.71L19.45 8.71L19.45 8.71Q19.10 9.44 19.10 10.49L19.10 10.49L19.10 10.49Q19.10 11.52 19.45 12.25L19.45 12.25L19.45 12.25Q19.81 12.98 20.38 13.34L20.38 13.34L20.38 13.34Q20.94 13.69 21.56 13.69L21.56 13.69L21.56 13.69Q22.30 13.69 22.79 13.34L22.79 13.34L22.79 13.34Q23.27 12.99 23.51 12.52L23.51 12.52L23.97 12.75ZM29.32 4.86L29.32 4.86Q29.05 4.86 28.87 4.68L28.87 4.68L28.87 4.68Q28.69 4.49 28.69 4.23L28.69 4.23L28.69 4.23Q28.69 3.96 28.87 3.78L28.87 3.78L28.87 3.78Q29.05 3.60 29.32 3.60L29.32 3.60L29.32 3.60Q29.58 3.60 29.76 3.78L29.76 3.78L29.76 3.78Q29.95 3.96 29.95 4.23L29.95 4.23L29.95 4.23Q29.95 4.49 29.76 4.68L29.76 4.68L29.76 4.68Q29.58 4.86 29.32 4.86L29.32 4.86ZM29.57 13.55L31.93 13.55L31.93 14L29.11 14L29.11 7.45L26.39 7.45L26.39 7L29.57 7L29.57 13.55ZM37.84 14.15L37.84 14.15Q36.61 14.15 35.86 13.27L35.86 13.27L35.86 13.27Q35.11 12.39 35.11 10.49L35.11 10.49L35.11 10.49Q35.11 8.58 35.87 7.71L35.87 7.71L35.87 7.71Q36.62 6.83 37.84 6.83L37.84 6.83L37.84 6.83Q39.06 6.83 39.81 7.71L39.81 7.71L39.81 7.71Q40.56 8.58 40.56 10.49L40.56 10.49L40.56 10.49Q40.56 12.39 39.81 13.27L39.81 13.27L39.81 13.27Q39.06 14.15 37.84 14.15L37.84 14.15ZM37.84 13.69L37.84 13.69Q38.82 13.69 39.44 12.96L39.44 12.96L39.44 12.96Q40.05 12.22 40.05 10.49L40.05 10.49L40.05 10.49Q40.05 8.78 39.44 8.04L39.44 8.04L39.44 8.04Q38.82 7.29 37.84 7.29L37.84 7.29L37.84 7.29Q36.86 7.29 36.24 8.04L36.24 8.04L36.24 8.04Q35.62 8.78 35.62 10.49L35.62 10.49L35.62 10.49Q35.62 12.22 36.23 12.96L36.23 12.96L36.23 12.96Q36.85 13.69 37.84 13.69L37.84 13.69ZM48.79 4.20L49.27 4.20L47.07 14L45.42 14L43.22 4.20L43.69 4.20L45.79 13.55L46.69 13.55L48.79 4.20ZM54.52 4.86L54.52 4.86Q54.25 4.86 54.07 4.68L54.07 4.68L54.07 4.68Q53.89 4.49 53.89 4.23L53.89 4.23L53.89 4.23Q53.89 3.96 54.07 3.78L54.07 3.78L54.07 3.78Q54.25 3.60 54.52 3.60L54.52 3.60L54.52 3.60Q54.78 3.60 54.96 3.78L54.96 3.78L54.96 3.78Q55.15 3.96 55.15 4.23L55.15 4.23L55.15 4.23Q55.15 4.49 54.96 4.68L54.96 4.68L54.96 4.68Q54.78 4.86 54.52 4.86L54.52 4.86ZM54.77 13.55L57.13 13.55L57.13 14L54.31 14L54.31 7.45L51.59 7.45L51.59 7L54.77 7L54.77 13.55ZM63.42 6.83L63.42 6.83Q64.30 6.83 64.92 7.27L64.92 7.27L64.92 7.27Q65.53 7.71 65.84 8.46L65.84 8.46L65.84 8.46Q66.15 9.20 66.15 10.12L66.15 10.12L66.15 10.12Q66.15 10.39 66.14 10.51L66.14 10.51L60.93 10.51L60.93 10.51Q60.94 12.03 61.57 12.86L61.57 12.86L61.57 12.86Q62.20 13.69 63.38 13.69L63.38 13.69L63.38 13.69Q64.25 13.69 64.78 13.31L64.78 13.31L64.78 13.31Q65.32 12.94 65.59 12.45L65.59 12.45L66.08 12.71L66.08 12.71Q65.73 13.24 65.06 13.70L65.06 13.70L65.06 13.70Q64.39 14.15 63.38 14.15L63.38 14.15L63.38 14.15Q62.06 14.15 61.24 13.23L61.24 13.23L61.24 13.23Q60.41 12.31 60.41 10.49L60.41 10.49L60.41 10.49Q60.41 9.27 60.83 8.44L60.83 8.44L60.83 8.44Q61.25 7.62 61.94 7.22L61.94 7.22L61.94 7.22Q62.62 6.83 63.42 6.83L63.42 6.83ZM60.94 10.07L65.59 10.07L65.59 10.07Q65.62 9.38 65.39 8.74L65.39 8.74L65.39 8.74Q65.16 8.11 64.65 7.70L64.65 7.70L64.65 7.70Q64.15 7.29 63.39 7.29L63.39 7.29L63.39 7.29Q62.41 7.29 61.73 8.00L61.73 8.00L61.73 8.00Q61.04 8.71 60.94 10.07L60.94 10.07ZM74.03 7L74.49 7L73.61 14L72.88 14L71.37 7.59L69.86 14L69.13 14L68.25 7L68.71 7L69.52 13.61L71.08 7L71.67 7L73.22 13.61L74.03 7Z"></path></g><!----><!----></svg>